<svg xmlns="http://www.w3.org/2000/svg" width="1240" height="680" viewBox="0 0 1240 680"><defs><linearGradient id="bg" x1="0%" y1="0%" x2="100%" y2="100%"><stop offset="0%" stop-color="#f8fafc"/><stop offset="100%" stop-color="#eef2f7"/></linearGradient><filter id="softShadow" x="-20%" y="-20%" width="140%" height="140%"><feDropShadow dx="0" dy="6" stdDeviation="10" flood-color="#0f172a" flood-opacity="0.10"/></filter><marker id="arrow" viewBox="0 0 14 14" refX="11.5" refY="7" markerWidth="12" markerHeight="12" markerUnits="userSpaceOnUse" orient="auto-start-reverse"><path d="M 0 0 L 14 7 L 0 14 z" fill="#1f4f82"/></marker></defs><rect x="0" y="0" width="1240" height="680" fill="url(#bg)"/><rect x="24" y="24" width="834" height="632" rx="28" fill="#fffdfb" stroke="#dbe3ee" stroke-width="2" filter="url(#softShadow)"/><rect x="886" y="24" width="330" height="632" rx="28" fill="#fffdfb" stroke="#dbe3ee" stroke-width="2" filter="url(#softShadow)"/><text x="56" y="70" font-family="Helvetica, Arial, sans-serif" font-size="30" font-weight="700" fill="#172554">Primary Diffusion Map: R01-106</text><text x="56" y="100" font-family="Helvetica, Arial, sans-serif" font-size="14" fill="#475569">Latent diffusion explanation derived from the trained recurrence/OS model</text><text x="56" y="126" font-family="Helvetica, Arial, sans-serif" font-size="13" fill="#64748b">Straight arrows encode outgoing diffusion from Primary; node size and fill encode organ susceptibility.</text><text x="914" y="62" font-family="Helvetica, Arial, sans-serif" font-size="20" font-weight="700" fill="#172554">Reading Panel</text><line x1="241.8" y1="376.1" x2="475.7" y2="494.6" stroke="#dbe9f5" stroke-width="13.19" stroke-linecap="round" opacity="0.28"/><line x1="241.8" y1="376.1" x2="475.7" y2="494.6" stroke="#567da7" stroke-width="7.69" stroke-linecap="round" opacity="0.694" marker-end="url(#arrow)"/><line x1="245.4" y1="363.8" x2="699.3" y2="412.1" stroke="#dbe9f5" stroke-width="12.25" stroke-linecap="round" opacity="0.28"/><line x1="245.4" y1="363.8" x2="699.3" y2="412.1" stroke="#6489b1" stroke-width="6.75" stroke-linecap="round" opacity="0.637" marker-end="url(#arrow)"/><line x1="244.7" y1="351.9" x2="353.1" y2="326.6" stroke="#dbe9f5" stroke-width="11.47" stroke-linecap="round" opacity="0.28"/><line x1="244.7" y1="351.9" x2="353.1" y2="326.6" stroke="#7092b8" stroke-width="5.97" stroke-linecap="round" opacity="0.589" marker-end="url(#arrow)"/><line x1="239.9" y1="340.7" x2="436.9" y2="213.4" stroke="#dbe9f5" stroke-width="11.36" stroke-linecap="round" opacity="0.28"/><line x1="239.9" y1="340.7" x2="436.9" y2="213.4" stroke="#7294b9" stroke-width="5.86" stroke-linecap="round" opacity="0.583" marker-end="url(#arrow)"/><line x1="243.6" y1="348.3" x2="722.9" y2="181.0" stroke="#dbe9f5" stroke-width="10.24" stroke-linecap="round" opacity="0.28"/><line x1="243.6" y1="348.3" x2="722.9" y2="181.0" stroke="#82a2c5" stroke-width="4.74" stroke-linecap="round" opacity="0.515" marker-end="url(#arrow)"/><circle cx="210.0" cy="360.0" r="31.6" fill="#ffffff" opacity="0.88"/><circle cx="210.0" cy="360.0" r="27.6" fill="#c2756b" stroke="#7c2d12" stroke-width="4"/><text x="210.0" y="365.0" text-anchor="middle" font-family="Helvetica, Arial, sans-serif" font-size="15" font-weight="800" fill="#fff7ed">P</text><line x1="210.0" y1="360.0" x2="210.0" y2="268.0" stroke="#b6c4d5" stroke-width="1.8" opacity="0.95"/><rect x="154.0" y="236.0" width="112.0" height="64.0" rx="15" fill="#ffffff" stroke="#d3deea" stroke-width="1.6"/><text x="210.0" y="257.0" text-anchor="middle" font-family="Helvetica, Arial, sans-serif" font-size="13" font-weight="700" fill="#0f172a">Primary</text><text x="210.0" y="290.0" text-anchor="middle" font-family="Helvetica, Arial, sans-serif" font-size="11.5" fill="#475569">sus 0.69</text><circle cx="470.0" cy="192.0" r="32.4" fill="#ffffff" opacity="0.88"/><circle cx="470.0" cy="192.0" r="28.4" fill="#bf6a61" stroke="#64748b" stroke-width="2.4"/><line x1="470.0" y1="192.0" x2="470.0" y2="278.0" stroke="#b6c4d5" stroke-width="1.8" opacity="0.95"/><rect x="414.0" y="246.0" width="112.0" height="64.0" rx="15" fill="#ffffff" stroke="#d3deea" stroke-width="1.6"/><text x="470.0" y="267.0" text-anchor="middle" font-family="Helvetica, Arial, sans-serif" font-size="13" font-weight="700" fill="#0f172a">Lung</text><text x="470.0" y="300.0" text-anchor="middle" font-family="Helvetica, Arial, sans-serif" font-size="11.5" fill="#475569">sus 0.74</text><circle cx="510.0" cy="512.0" r="31.5" fill="#ffffff" opacity="0.88"/><circle cx="510.0" cy="512.0" r="27.5" fill="#c2766d" stroke="#64748b" stroke-width="2.4"/><line x1="510.0" y1="512.0" x2="510.0" y2="558.0" stroke="#b6c4d5" stroke-width="1.8" opacity="0.95"/><rect x="454.0" y="526.0" width="112.0" height="64.0" rx="15" fill="#ffffff" stroke="#d3deea" stroke-width="1.6"/><text x="510.0" y="547.0" text-anchor="middle" font-family="Helvetica, Arial, sans-serif" font-size="13" font-weight="700" fill="#0f172a">Bone</text><text x="510.0" y="580.0" text-anchor="middle" font-family="Helvetica, Arial, sans-serif" font-size="11.5" fill="#475569">sus 0.68</text><circle cx="736.0" cy="416.0" r="29.9" fill="#ffffff" opacity="0.88"/><circle cx="736.0" cy="416.0" r="25.9" fill="#c98b82" stroke="#64748b" stroke-width="2.4"/><line x1="736.0" y1="416.0" x2="736.0" y2="502.0" stroke="#b6c4d5" stroke-width="1.8" opacity="0.95"/><rect x="680.0" y="470.0" width="112.0" height="64.0" rx="15" fill="#ffffff" stroke="#d3deea" stroke-width="1.6"/><text x="736.0" y="491.0" text-anchor="middle" font-family="Helvetica, Arial, sans-serif" font-size="13" font-weight="700" fill="#0f172a">Liver</text><text x="736.0" y="524.0" text-anchor="middle" font-family="Helvetica, Arial, sans-serif" font-size="11.5" fill="#475569">sus 0.57</text><circle cx="390.0" cy="318.0" r="30.9" fill="#ffffff" opacity="0.88"/><circle cx="390.0" cy="318.0" r="26.9" fill="#c57f75" stroke="#64748b" stroke-width="2.4"/><line x1="390.0" y1="318.0" x2="386.0" y2="408.0" stroke="#b6c4d5" stroke-width="1.8" opacity="0.95"/><rect x="315.9" y="367.0" width="140.2" height="82.0" rx="15" fill="#ffffff" stroke="#d3deea" stroke-width="1.6"/><text x="386.0" y="388.0" text-anchor="middle" font-family="Helvetica, Arial, sans-serif" font-size="13" font-weight="700" fill="#0f172a">LN</text><text x="386.0" y="404.0" text-anchor="middle" font-family="Helvetica, Arial, sans-serif" font-size="13" font-weight="700" fill="#0f172a">Mediastinum</text><text x="386.0" y="439.0" text-anchor="middle" font-family="Helvetica, Arial, sans-serif" font-size="11.5" fill="#475569">sus 0.63</text><circle cx="760.0" cy="168.0" r="32.3" fill="#ffffff" opacity="0.88"/><circle cx="760.0" cy="168.0" r="28.3" fill="#bf6b62" stroke="#64748b" stroke-width="2.4"/><line x1="760.0" y1="168.0" x2="760.0" y2="254.0" stroke="#b6c4d5" stroke-width="1.8" opacity="0.95"/><rect x="704.0" y="222.0" width="112.0" height="64.0" rx="15" fill="#ffffff" stroke="#d3deea" stroke-width="1.6"/><text x="760.0" y="243.0" text-anchor="middle" font-family="Helvetica, Arial, sans-serif" font-size="13" font-weight="700" fill="#0f172a">Brain</text><text x="760.0" y="276.0" text-anchor="middle" font-family="Helvetica, Arial, sans-serif" font-size="11.5" fill="#475569">sus 0.74</text><rect x="914" y="86" width="274" height="46" rx="16" fill="#f7fafc" stroke="#dbe3ee" stroke-width="1.4"/><circle cx="940" cy="109" r="10" fill="#b03831"/><text x="962" y="114" font-family="Helvetica, Arial, sans-serif" font-size="13" fill="#1e293b">Node fill and size = susceptibility</text><line x1="924" y1="154" x2="1018" y2="154" stroke="#c7daee" stroke-width="11" stroke-linecap="round" opacity="0.30"/><line x1="924" y1="154" x2="1018" y2="154" stroke="#1f4f82" stroke-width="5.5" stroke-linecap="round" marker-end="url(#arrow)"/><text x="1040" y="159" font-family="Helvetica, Arial, sans-serif" font-size="13" fill="#1e293b">Straight arrow = outgoing diffusion</text><text x="914" y="206" font-family="Helvetica, Arial, sans-serif" font-size="16" font-weight="700" fill="#172554">Key Numbers</text><text x="914" y="238" font-family="Helvetica, Arial, sans-serif" font-size="14" fill="#334155">Patient: R01-106</text><text x="914" y="262" font-family="Helvetica, Arial, sans-serif" font-size="14" fill="#334155">Recurrence probability: 0.58</text><text x="914" y="286" font-family="Helvetica, Arial, sans-serif" font-size="14" fill="#334155">Predicted recurrence location: regional</text><text x="914" y="310" font-family="Helvetica, Arial, sans-serif" font-size="14" fill="#334155"></text><text x="914" y="334" font-family="Helvetica, Arial, sans-serif" font-size="14" fill="#334155">Primary outgoing ranking:</text><text x="914" y="358" font-family="Helvetica, Arial, sans-serif" font-size="14" fill="#334155">Bone: 0.60</text><text x="914" y="382" font-family="Helvetica, Arial, sans-serif" font-size="14" fill="#334155">Liver: 0.49</text><text x="914" y="406" font-family="Helvetica, Arial, sans-serif" font-size="14" fill="#334155">LN Mediastinum: 0.41</text><text x="914" y="430" font-family="Helvetica, Arial, sans-serif" font-size="14" fill="#334155">Lung: 0.40</text><text x="914" y="454" font-family="Helvetica, Arial, sans-serif" font-size="14" fill="#334155">Brain: 0.28</text><text x="914" y="478" font-family="Helvetica, Arial, sans-serif" font-size="14" fill="#334155"></text><text x="914" y="502" font-family="Helvetica, Arial, sans-serif" font-size="14" fill="#334155">Top paths:</text><text x="914" y="526" font-family="Helvetica, Arial, sans-serif" font-size="14" fill="#334155">Primary -&gt; Bone: 0.60</text><text x="914" y="550" font-family="Helvetica, Arial, sans-serif" font-size="14" fill="#334155">Primary -&gt; Liver: 0.49</text><text x="914" y="574" font-family="Helvetica, Arial, sans-serif" font-size="14" fill="#334155">Primary -&gt; LN Mediastinum: 0.41</text></svg>